<svg xmlns="http://www.w3.org/2000/svg" xmlns:xlink="http://www.w3.org/1999/xlink" width="240" height="66.967" viewBox="0 0 240 66.967">
  <defs>
    <rect id="rect-1" width="240" height="66.967" x="0" y="0"/>
    <mask id="mask-2" maskContentUnits="userSpaceOnUse" maskUnits="userSpaceOnUse">
      <rect width="240" height="66.967" x="0" y="0" fill="black"/>
      <use fill="white" xlink:href="#rect-1"/>
    </mask>
  </defs>
  <g>
    <use fill="none" xlink:href="#rect-1"/>
    <g mask="url(#mask-2)">
      <path fill="rgb(229,13,136)" fill-rule="evenodd" d="M28.47117794 18.64661654c1.30325815-3.15789474 2.95739349-6.0651629 5.01253133-8.77192982 2.00501253 2.6566416 3.70927319 5.61403508 5.01253133 8.77192982 2.95739349-2.05513784 6.51629073-3.25814536 10.37593985-3.25814536.85213033 0 1.70426065.05012531 2.50626567.20050125C50.1754386 6.7669173 42.60651629 0 33.48370927 0c-9.12280701 0-16.69172932 6.7669173-17.89473684 15.58897243.80200501-.10025063 1.65413534-.20050125 2.50626567-.20050125 3.85964912 0 7.46867167 1.20300752 10.37593984 3.25814536"/>
      <path fill="rgb(229,13,136)" fill-rule="evenodd" d="M38.4962406 48.2706767c-1.30325814 3.15789473-2.95739348 6.0651629-5.01253133 8.77192982-2.00501253-2.6566416-3.70927318-5.6140351-5.01253133-8.77192983-2.95739348 2.05513785-6.51629072 3.30827068-10.37593984 3.30827068-.85213033 0-1.70426066-.05012531-2.50626567-.20050125 1.20300752 8.77192982 8.77192983 15.58897243 17.89473684 15.58897243 9.12280702 0 16.69172933-6.7669173 17.89473685-15.58897243-.80200502.10025062-1.65413534.20050125-2.50626567.20050125-3.85964912 0-7.46867168-1.20300752-10.37593985-3.30827068"/>
      <path fill="rgb(229,13,136)" fill-rule="evenodd" d="M18.64661654 38.4962406c-3.15789474-1.30325814-6.0651629-2.95739348-8.77192982-5.01253133 2.6566416-2.00501253 5.61403508-3.70927318 8.77192982-5.01253133-2.05513784-2.95739348-3.30827068-6.51629072-3.30827068-10.37593984 0-.85213033.05012532-1.70426066.20050126-2.50626567C6.76691729 16.79197995 0 24.36090226 0 33.48370927 0 42.6065163 6.7669173 50.1754386 15.58897243 51.37844612c-.10025063-.80200502-.20050125-1.65413534-.20050125-2.50626567 0-3.85964912 1.20300752-7.46867168 3.25814536-10.37593985"/>
      <path fill="rgb(229,13,136)" fill-rule="evenodd" d="M66.96741855 33.48370927c0-9.12280701-6.7669173-16.69172932-15.58897243-17.89473684.10025062.80200501.20050125 1.65413534.20050125 2.50626567 0 3.85964912-1.20300752 7.46867167-3.25814536 10.37593984 3.15789473 1.30325815 6.0651629 2.95739349 8.77192982 5.01253133-2.6566416 2.00501253-5.61403509 3.70927319-8.77192982 5.01253133 2.05513784 2.95739349 3.25814536 6.51629073 3.25814536 10.37593985 0 .85213033-.05012531 1.70426065-.20050125 2.50626567 8.82205513-1.20300752 15.58897243-8.77192983 15.58897243-17.89473685"/>
      <path fill="rgb(0,0,0)" fill-rule="evenodd" d="M18.64661654 28.47117794c2.40601504-1.00250626 4.96240602-1.75438596 7.5689223-2.2556391.50125314-2.60651628 1.25313284-5.16290726 2.2556391-7.5689223-2.95739348-2.05513784-6.51629072-3.30827068-10.37593984-3.30827068-.85213033 0-1.70426066.05012532-2.50626567.20050126-.10025063.80200501-.20050125 1.65413534-.20050125 2.50626566 0 3.90977444 1.20300752 7.518797 3.25814536 10.42606516"/>
      <path fill="rgb(0,0,0)" fill-rule="evenodd" d="M28.47117794 48.2706767c-1.00250626-2.40601505-1.75438596-4.96240602-2.2556391-7.56892231-2.60651628-.50125314-5.16290726-1.25313284-7.5689223-2.2556391-2.05513784 2.95739348-3.30827068 6.51629073-3.30827068 10.37593985 0 .85213032.05012532 1.70426065.20050126 2.50626566.80200501.10025063 1.65413534.20050126 2.50626566.20050126 3.90977444.0501253 7.518797-1.15288221 10.42606516-3.25814537"/>
      <path fill="rgb(0,0,0)" fill-rule="evenodd" d="M38.4962406 18.64661654c1.00250627 2.40601504 1.75438597 4.96240602 2.2556391 7.5689223 2.60651629.50125314 5.16290727 1.25313284 7.5689223 2.2556391 2.05513785-2.95739348 3.25814537-6.51629072 3.25814537-10.37593984 0-.85213033-.05012531-1.70426066-.20050125-2.50626567-.80200502-.10025063-1.65413534-.20050125-2.50626567-.20050125-3.85964912 0-7.46867168 1.20300752-10.37593985 3.25814536"/>
      <path fill="rgb(0,0,0)" fill-rule="evenodd" d="M48.2706767 38.4962406c-2.40601505 1.00250627-4.96240602 1.75438597-7.56892231 2.2556391-.50125314 2.60651629-1.25313284 5.16290727-2.2556391 7.5689223 2.95739348 2.05513785 6.51629073 3.25814537 10.37593985 3.25814537.85213032 0 1.70426065-.05012531 2.50626566-.20050125.10025063-.80200502.20050126-1.65413534.20050126-2.50626567.0501253-3.85964912-1.15288221-7.46867168-3.25814537-10.37593985"/>
      <g>
        <path fill="rgb(0,0,0)" fill-rule="evenodd" d="M91.42857143 12.78195489l-1.65413534 1.9047619c-1.25313283-1.05263158-2.45614035-1.5037594-3.90977444-1.5037594-1.5538847 0-2.70676691.70175439-2.70676691 2.05513785 0 1.25313283.65162907 1.80451128 3.55889724 2.70676692 3.05764411.95238095 5.16290727 2.20551378 5.16290727 5.46365914 0 3.10776943-2.45614035 5.31328321-6.56641604 5.31328321-2.75689223 0-4.81203008-1.00250626-6.26566416-2.40601504l1.70426065-1.9047619c1.25313283 1.1027569 2.6566416 1.75438596 4.46115288 1.75438596 1.8546366 0 3.20802005-.90225564 3.20802005-2.60651629 0-1.45363408-.70175438-2.10526315-3.45864661-2.95739348-3.65914787-1.1528822-5.21303259-2.6065163-5.21303259-5.21303258 0-2.90726817 2.50626567-4.81203008 5.91478697-4.81203008 2.55639098.05012532 4.26065163.80200502 5.76441103 2.20551379z"/>
        <path fill="rgb(0,0,0)" fill-rule="evenodd" d="M105.96491228 13.48370927h-6.4160401v4.8621554h5.56390977V20.802005h-5.56390977v5.11278196h6.86716792v2.50626566H96.2406015v-17.3934837h10.07518797l-.35087719 2.45614034z"/>
        <path fill="rgb(0,0,0)" fill-rule="evenodd" d="M114.33583883 21.40350915h2.10526546l3.85964759 7.01754386h3.80952304l-4.56140274-7.5689225c2.3558882-.95238075 3.50877193-2.3558901 3.50877193-4.71177925 0-3.4586469-2.30576365-5.11278234-6.86716639-5.11278234h-5.1629088v17.34335763h3.30826991v-6.9674174zm2.05513708-2.4060156h-2.05513708v-5.614035h1.75438597c2.40601657 0 3.50877193.8020052 3.50877193 2.7067672 0 2.05513804-1.15288374 2.9072678-3.20802082 2.9072678z"/>
        <path fill="rgb(0,0,0)" fill-rule="evenodd" d="M137.54385965 13.48370927h-6.4160401v4.8621554h5.56390977V20.802005h-5.56390977v5.11278196h6.86716792v2.50626566h-10.1754386v-17.3934837h10.07518797l-.3508772 2.45614034z"/>
        <path fill="rgb(0,0,0)" fill-rule="evenodd" d="M155.4385965 28.320802h-4.31077695l-5.96491228-14.03508771c.20050125 1.5538847.45112782 3.7593985.45112782 6.96741854v7.06766918h-3.0075188V11.02756892h4.21052632l6.0651629 14.03508772c-.15037594-.95238095-.45112782-3.45864661-.45112782-5.91478697v-8.12030075h3.0075188v17.29323309z"/>
        <path fill="rgb(0,0,0)" fill-rule="evenodd" d="M165.71428113 28.37092655c4.1102818 0 8.42105416-1.75438596 8.42105416-8.77192887 0-7.16791989-4.31077236-8.57142876-8.87217892-8.57142876h-4.26065163v17.34335763h4.71177639zm-1.40350266-2.50626566v-12.3809518h1.55388777c2.5563864 0 4.81202549.90225573 4.81202549 6.11528764 0 5.11278234-2.10526163 6.26566416-4.71177639 6.26566416h-1.65413687z"/>
        <path fill="rgb(0,0,0)" fill-rule="evenodd" d="M182.05513784 28.320802h-3.30827067V11.02756893h3.30827067v17.29323309z"/>
        <path fill="rgb(0,0,0)" fill-rule="evenodd" d="M192.93233542 22.30576441c3.90976831 0 6.81703801-1.75438596 6.81703801-5.76441103 0-3.7593985-2.65664313-5.51378446-7.01754386-5.51378446h-5.11278042v17.34335763h3.30827373v-6.06516214h2.00501254zm-.25063422-8.87218035c2.30576747 0 3.60902103.90225573 3.60902103 3.10776932 0 2.50626567-1.4035103 3.25814537-3.60902103 3.25814537h-1.75438596v-6.3659147h1.75438596z"/>
        <path fill="rgb(0,0,0)" fill-rule="evenodd" d="M207.21804511 28.320802h-3.30827067V11.02756893h3.30827067v17.29323309z"/>
        <path fill="rgb(0,0,0)" fill-rule="evenodd" d="M223.55889724 13.63408521h-4.5112782v14.6867168h-3.35839598V13.6340852h-4.66165414v-2.60651629h12.88220552l-.3508772 2.6065163z"/>
        <path fill="rgb(0,0,0)" fill-rule="evenodd" d="M234.43609023 21.75438596v6.56641605h-3.358396v-6.51629073l-5.56390977-10.77694236h3.65914787l3.65914787 8.07017544 3.65914787-8.07017544H240l-5.56390977 10.72681704z"/>
        <path fill="rgb(0,0,0)" fill-rule="evenodd" d="M83.05764401 49.37343358h5.76441103l1.10275728 4.06014962h3.50877193l-5.3634089-17.34335764h-4.1102756l-5.41353393 17.29323309h3.45864666l1.05263153-4.01002507zm2.85714324-10.77694235l2.2055136 8.27067669h-4.41102767l2.20551407-8.2706767z"/>
        <path fill="rgb(0,0,0)" fill-rule="evenodd" d="M100.15037556 46.46616388h2.10526354l3.8596495 7.01754386h3.80952496l-4.56140466-7.56892154c2.35589011-.95238171 3.50877193-2.3558882 3.50877193-4.71178021 0-3.45864547-2.30576555-5.11278043-6.8671683-5.11278043h-5.16290688V53.4335832h3.3082699v-6.96741932zm2.05513708-2.40601274h-2.05513708v-5.61403547h1.75438596c2.40601466 0 3.50877193.80200425 3.50877193 2.70676577 0 2.05513708-1.15288182 2.9072697-3.20802081 2.9072697z"/>
        <path fill="rgb(0,0,0)" fill-rule="evenodd" d="M123.90977444 38.69674185h-4.5112782v14.6867168h-3.35839599v-14.6867168h-4.66165413v-2.60651629h12.8822055l-.35087718 2.6065163z"/>
        <path fill="rgb(0,0,0)" fill-rule="evenodd" d="M138.1453634 37.84461153l-1.65413533 1.9047619c-1.25313283-1.05263158-2.45614035-1.5037594-3.90977444-1.5037594-1.5538847 0-2.70676691.7017544-2.70676691 2.05513785 0 1.25313283.65162907 1.80451128 3.55889724 2.70676692 3.05764411.95238095 5.16290727 2.20551378 5.16290727 5.46365914 0 3.10776943-2.45614035 5.31328321-6.56641604 5.31328321-2.75689223 0-4.81203008-1.00250626-6.26566416-2.40601503l1.70426065-1.9047619c1.25313283 1.10275688 2.6566416 1.75438596 4.46115288 1.75438596 1.8546366 0 3.20802005-.90225564 3.20802005-2.6065163 0-1.45363408-.70175438-2.10526315-3.45864662-2.95739348-3.65914786-1.1528822-5.21303258-2.60651629-5.21303258-5.21303258 0-2.90726817 2.50626567-4.81203008 5.91478697-4.81203008 2.55639098.05012532 4.26065163.80200502 5.76441103 2.20551379z"/>
      </g>
      <g>
        <path fill="rgb(229,13,136)" fill-rule="evenodd" d="M152.13032581 42.90726817h-1.5538847l-.10025063-2.55639098c-.05012532-.90225564-.05012532-1.85463659 0-2.70676691l-1.00250627 4.5614035h-1.45363408l-1.1027569-4.5614035c.05012532.95238095.05012532 1.80451127.05012532 2.70676691l-.10025063 2.55639098h-1.5037594l.50125313-6.61654135h1.95488722l1.00250627 4.46115288.90225564-4.46115288h2.00501253l.4010025 6.61654135z"/>
        <path fill="rgb(229,13,136)" fill-rule="evenodd" d="M158.39598997 40.70175439c0 1.35338345-.85213032 2.35588972-2.55639097 2.35588972-1.70426065 0-2.55639098-.95238095-2.55639098-2.35588972v-4.41102757h1.55388471v4.36090225c0 .85213033.30075188 1.25313283 1.00250627 1.25313283.70175438 0 1.00250626-.4010025 1.00250626-1.25313283v-4.36090225h1.55388471v4.41102757z"/>
        <path fill="rgb(229,13,136)" fill-rule="evenodd" d="M164.9122807 42.90726817h-2.00501253l-1.9047619-5.11278195c.10025062.60150375.20050125 1.45363408.20050125 2.70676691v2.40601504h-1.40350877v-6.61654135h1.95488721l1.95488722 5.11278195c-.10025062-.55137844-.20050125-1.40350877-.20050125-2.45614035v-2.6566416h1.40350877v6.61654135z"/>
        <path fill="rgb(229,13,136)" fill-rule="evenodd" d="M168.2706767 41.9047619c0 1.65413534-1.00250627 2.2556391-2.10526317 2.6065163l-.4010025-1.1027569c.85213032-.35087719 1.00250626-.802005 1.00250626-1.5538847v-5.56390978h1.55388472v5.61403508h-.05012532z"/>
        <path fill="rgb(229,13,136)" fill-rule="evenodd" d="M170.9273183 41.45363256h1.9548918l.35087567 1.4035103h1.65413686l-2.00501253-6.61654174h-1.90476343l-2.00501253 6.61654174h1.6040085l.35087566-1.4035103zm.95237789-4.01002316l.70175897 2.9072678h-1.4035103l.70175133-2.9072678z"/>
        <path fill="rgb(229,13,136)" fill-rule="evenodd" d="M177.19298246 41.65413534h2.55639097l-.15037594 1.25313283h-3.95989975v-6.61654135h1.55388472v5.36340852z"/>
        <path fill="rgb(229,13,136)" fill-rule="evenodd" d="M184.9122807 42.90726817H183.358396v-6.61654135h1.55388471v6.61654135z"/>
        <path fill="rgb(229,13,136)" fill-rule="evenodd" d="M191.52882206 42.90726817h-2.00501254l-1.9047619-5.11278195c.10025063.60150375.20050125 1.45363408.20050125 2.70676691v2.40601504h-1.40350877v-6.61654135h1.95488722l1.95488722 5.11278195c-.10025063-.55137844-.20050126-1.40350877-.20050126-2.45614035v-2.6566416h1.40350878v6.61654135z"/>
        <path fill="rgb(229,13,136)" fill-rule="evenodd" d="M194.58646617 42.90726817h-1.55388472v-6.61654135h1.55388472v6.61654135z"/>
        <path fill="rgb(229,13,136)" fill-rule="evenodd" d="M200.45112782 37.49373434h-1.60401003v5.41353383h-1.5538847v-5.41353383h-1.70426066v-1.20300752h5.06265664l-.20050125 1.20300752z"/>
        <path fill="rgb(229,13,136)" fill-rule="evenodd" d="M203.10776942 42.90726817h-1.5538847v-6.61654135h1.5538847v6.61654135z"/>
        <path fill="rgb(229,13,136)" fill-rule="evenodd" d="M205.46365609 42.85714286l.35087566-1.4035103h1.90476344l.40100403 1.4035103h1.65413687l-2.00501253-6.61654174h-1.90476344l-2.00501253 6.61654174h1.6040085zm1.3032612-5.41353346l.70175898 2.9072678h-1.4035103l.70175132-2.9072678z"/>
        <path fill="rgb(229,13,136)" fill-rule="evenodd" d="M214.38596491 37.49373434h-1.60401002v5.41353383h-1.55388471v-5.41353383h-1.70426066v-1.20300752h5.01253133l-.15037594 1.20300752z"/>
        <path fill="rgb(229,13,136)" fill-rule="evenodd" d="M217.04260652 42.90726817h-1.55388472v-6.61654135h1.55388472v6.61654135z"/>
        <path fill="rgb(229,13,136)" fill-rule="evenodd" d="M221.65413534 42.90726817h-1.95488722l-1.9047619-6.61654135h1.65413533l1.25313284 5.36340852 1.20300751-5.36340852h1.60401003l-1.8546366 6.61654135z"/>
        <path fill="rgb(229,13,136)" fill-rule="evenodd" d="M228.12030075 37.3934837h-2.3057644v1.60401003h2.00501252v1.1027569h-2.00501253v1.70426065h2.50626567v1.10275689h-4.06015038v-6.61654135h4.06015038l-.20050126 1.10275689z"/>
        <path fill="rgb(229,13,136)" fill-rule="evenodd" d="M145.56390977 46.8170426h3.90977444l-.15037594 1.1027569h-2.20551378v1.75438596h1.9047619v1.1027569h-1.9047619v2.60651629h-1.55388472V46.8170426z"/>
        <path fill="rgb(229,13,136)" fill-rule="evenodd" d="M152.98245461 53.58396066c1.85464271 0 2.95739807-1.3032612 2.95739807-3.45864738 0-2.20551455-1.10275536-3.45864738-2.95739807-3.45864738-1.85463506 0-2.95739042 1.30325738-2.95739042 3.45864738 0 2.20551455 1.10275536 3.45864738 2.95739042 3.45864738zm0-1.15288373c-.90225717 0-1.35338193-.65162678-1.35338193-2.30576365 0-1.65413304.50125313-2.30576364 1.35338193-2.30576364.90225717 0 1.35338193.6516306 1.35338193 2.30576364 0 1.65413687-.45112476 2.30576365-1.35338193 2.30576365z"/>
        <path fill="rgb(229,13,136)" fill-rule="evenodd" d="M158.74687329 50.87719298h.60150223l1.35338193 2.55639022h1.75438596l-1.65413687-2.80701678c.8521288-.40100022 1.25313283-.95238172 1.25313283-1.80451052 0-1.35338193-.90225716-2.00501253-2.70676385-2.00501253h-2.15539v6.56641528h1.55388777v-2.50626567zm.65162295-1.05263081h-.6516306v-1.90476344h.5513815c.80200043 0 1.15287609.25062657 1.15287609.90225717 0 .70175133-.35087566 1.00250627-1.05262699 1.00250627z"/>
        <path fill="rgb(229,13,136)" fill-rule="evenodd" d="M170.5764411 47.36842105l-.7518797.90225564c-.35087719-.30075188-.7518797-.45112782-1.20300752-.45112782-.85213032 0-1.45363408.65162907-1.45363408 2.30576441 0 1.60401003.60150376 2.2556391 1.45363408 2.2556391.50125314 0 .90225564-.25062657 1.30325815-.55137845l.70175439.90225564c-.45112782.45112782-1.1528822.85213033-2.05513785.85213033-1.80451128 0-3.0075188-1.20300752-3.0075188-3.45864662 0-2.20551378 1.30325815-3.45864661 3.0075188-3.45864661.85213033 0 1.45363409.25062656 2.00501253.70175438z"/>
        <path fill="rgb(229,13,136)" fill-rule="evenodd" d="M173.23308577 50.87719298h.60150223l1.35338192 2.55639022h1.75438597l-1.65413687-2.80701678c.8521288-.40100022 1.25313283-.95238172 1.25313283-1.80451052 0-1.35338193-.90225717-2.00501253-2.70676385-2.00501253h-2.15539v6.56641528h1.55388777v-2.50626567zm.6516306-1.05263081h-.6516306v-1.90476344h.5513815c.80200043 0 1.15287609.25062657 1.15287609.90225717 0 .70175133-.35087566 1.00250627-1.052627 1.00250627z"/>
        <path fill="rgb(229,13,136)" fill-rule="evenodd" d="M181.70426065 47.9197995h-2.3057644v1.60401002h2.00501252v1.1027569h-2.00501253v1.70426065h2.50626566v1.10275689h-4.06015037v-6.61654135h4.06015037l-.20050125 1.10275689z"/>
        <path fill="rgb(229,13,136)" fill-rule="evenodd" d="M184.31077541 51.97995217h1.90476344l.40100403 1.40350648h1.65413687l-2.00501253-6.61653983h-1.90476343l-2.00501254 6.61653983h1.6040085l.35087566-1.40350648zm.9523779-4.01002889l.70175897 2.9072697h-1.4035103l.70175133-2.9072697z"/>
        <path fill="rgb(229,13,136)" fill-rule="evenodd" d="M192.88220551 48.02005013h-1.60401002v5.41353383h-1.55388471v-5.41353383h-1.70426065V46.8170426h5.06265664l-.20050126 1.20300752z"/>
        <path fill="rgb(229,13,136)" fill-rule="evenodd" d="M195.53884712 53.43358396h-1.55388471v-6.61654135h1.5538847v6.61654135z"/>
        <path fill="rgb(229,13,136)" fill-rule="evenodd" d="M200.15037594 53.43358396h-1.95488722l-1.9047619-6.61654135h1.65413534l1.25313283 5.36340852 1.20300752-5.36340852h1.60401002l-1.85463659 6.61654135z"/>
        <path fill="rgb(229,13,136)" fill-rule="evenodd" d="M204.31077694 53.43358396h-1.5538847v-6.61654135h1.5538847v6.61654135z"/>
        <path fill="rgb(229,13,136)" fill-rule="evenodd" d="M210.1754386 48.02005013h-1.60401003v5.41353383h-1.55388471v-5.41353383h-1.70426065V46.8170426h5.06265664l-.20050125 1.20300752z"/>
        <path fill="rgb(229,13,136)" fill-rule="evenodd" d="M214.23558897 50.9273183v2.45614035h-1.5538847V50.9273183l-2.10526317-4.1102757h1.70426065l1.20300752 2.90726818 1.20300752-2.90726817h1.65413534l-2.10526316 4.11027569z"/>
      </g>
    </g>
  </g>
</svg>
